<?xml version="1.0" encoding="UTF-8" standalone="no"?>
<svg xmlns="http://www.w3.org/2000/svg" version="1.0" width="1000.00006" height="1000.00006" id="C:\tom\20-gon-random-dissection.svg">
<!-- X Coordinate transform: fx(x)=(x+3.3560379)*148.98521-->
<!-- Y Coordinate transform: fy(y)=(3.3560379-y)*148.98521 -->
<!-- Flac geometry view -->
<g style="opacity:1.0;fill:#5a5aff;fill-opacity:1;stroke:#000000;stroke-width:4;stroke-opacity:0.80;">  <!-- areaindex 0 -->
<polygon points=" 647.151,47.116 779.898,114.754 885.246,220.102 752.499,152.464" />
<polygon points=" 500,976.19 352.849,952.884 220.102,885.246 367.253,908.553" />
<polygon points=" 220.102,114.754 352.849,47.116 500,23.81 367.253,91.447" />
<polygon points=" 976.19,500 952.884,647.151 885.246,779.898 908.553,632.747" />
<polygon points=" 47.116,647.151 23.81,500 47.116,352.849 70.422,500" />
<polygon points=" 243.409,261.905 390.56,238.598 537.711,261.905 390.56,285.211" />
<polygon points=" 619.753,220.102 687.391,352.849 710.697,500 643.059,367.253" />
<polygon points=" 775.806,565.109 670.457,670.457 537.711,738.095 643.059,632.747" />
<polygon points=" 537.711,738.095 432.362,632.747 364.724,500 470.073,605.349" />
<polygon points=" 537.711,261.905 470.073,394.651 364.724,500 432.362,367.253" />
</g>
<g style="opacity:1.0;fill:#5abf5a;fill-opacity:1;stroke:#000000;stroke-width:4;stroke-opacity:0.80;">  <!-- areaindex 1 -->
<polygon points=" 885.246,220.102 952.884,352.849 820.137,285.211 752.499,152.464" />
<polygon points=" 500,976.19 367.253,908.553 514.404,885.246 647.151,952.884" />
<polygon points=" 220.102,885.246 114.754,779.898 261.905,803.204 367.253,908.553" />
<polygon points=" 647.151,47.116 514.404,114.754 367.253,91.447 500,23.81" />
<polygon points=" 885.246,779.898 779.898,885.246 803.204,738.095 908.553,632.747" />
<polygon points=" 514.404,114.754 619.753,220.102 643.059,367.253 537.711,261.905" />
<polygon points=" 843.444,432.362 775.806,565.109 643.059,632.747 710.697,500" />
<polygon points=" 47.116,352.849 114.754,220.102 138.06,367.253 70.422,500" />
<polygon points=" 409.056,779.898 341.418,647.151 364.724,500 432.362,632.747" />
<polygon points=" 537.711,261.905 432.362,367.253 285.211,390.56 390.56,285.211" />
</g>
<g style="opacity:1.0;fill:#5abfbf;fill-opacity:1;stroke:#000000;stroke-width:4;stroke-opacity:0.80;">  <!-- areaindex 2 -->
<polygon points=" 367.253,908.553 261.905,803.204 409.056,779.898 514.404,885.246" />
<polygon points=" 114.754,779.898 47.116,647.151 194.267,670.457 261.905,803.204" />
<polygon points=" 976.19,500 843.444,432.362 820.137,285.211 952.884,352.849" />
<polygon points=" 220.102,114.754 243.409,261.905 138.06,367.253 114.754,220.102" />
<polygon points=" 647.151,952.884 670.457,805.733 803.204,738.095 779.898,885.246" />
<polygon points=" 138.06,367.253 243.409,261.905 390.56,285.211 285.211,390.56" />
<polygon points=" 803.204,738.095 670.457,805.733 537.711,738.095 670.457,670.457" />
<polygon points=" 514.404,885.246 409.056,779.898 432.362,632.747 537.711,738.095" />
<polygon points=" 217.573,523.306 285.211,390.56 432.362,367.253 364.724,500" />
<polygon points=" 643.059,367.253 710.697,500 643.059,632.747 575.421,500" />
</g>
<g style="opacity:1.0;fill:#bf5a5a;fill-opacity:1;stroke:#000000;stroke-width:4;stroke-opacity:0.80;">  <!-- areaindex 3 -->
<polygon points=" 647.151,47.116 752.499,152.464 619.753,220.102 514.404,114.754" />
<polygon points=" 367.253,91.447 514.404,114.754 537.711,261.905 390.56,238.598" />
<polygon points=" 261.905,803.204 194.267,670.457 341.418,647.151 409.056,779.898" />
<polygon points=" 820.137,285.211 843.444,432.362 710.697,500 687.391,352.849" />
<polygon points=" 908.553,632.747 803.204,738.095 670.457,670.457 775.806,565.109" />
<polygon points=" 647.151,952.884 514.404,885.246 537.711,738.095 670.457,805.733" />
<polygon points=" 194.267,670.457 217.573,523.306 364.724,500 341.418,647.151" />
<polygon points=" 70.422,500 138.06,367.253 285.211,390.56 217.573,523.306" />
<polygon points=" 537.711,261.905 643.059,367.253 575.421,500 470.073,394.651" />
<polygon points=" 537.711,738.095 470.073,605.349 575.421,500 643.059,632.747" />
</g>
<g style="opacity:1.0;fill:#af5aaf;fill-opacity:1;stroke:#000000;stroke-width:4;stroke-opacity:0.80;">  <!-- areaindex 4 -->
<polygon points=" 220.102,114.754 367.253,91.447 390.56,238.598 243.409,261.905" />
<polygon points=" 976.19,500 908.553,632.747 775.806,565.109 843.444,432.362" />
<polygon points=" 752.499,152.464 820.137,285.211 687.391,352.849 619.753,220.102" />
<polygon points=" 47.116,647.151 70.422,500 217.573,523.306 194.267,670.457" />
<polygon points=" 364.724,500 470.073,394.651 575.421,500 470.073,605.349" />
</g>
<g style="stroke:#000000;stroke-width:4;stroke-opacity:0.50;fill-opacity:0.0">
<!-- Group: <Default>-->
<polyline points=" 779.898,114.754 885.246,220.102 752.499,152.464 647.151,47.116 500,23.81 352.849,47.116 220.102,114.754 114.754,220.102 47.116,352.849 23.81,500 47.116,647.151 114.754,779.898 220.102,885.246 352.849,952.884 500,976.19 647.151,952.884 779.898,885.246 885.246,779.898 952.884,647.151 976.19,500 952.884,352.849 885.246,220.102" />
<polyline points=" 647.151,47.116 779.898,114.754" />
<polyline points=" 500,976.19 367.253,908.553 220.102,885.246" />
<polyline points=" 367.253,908.553 261.905,803.204 194.267,670.457 217.573,523.306 285.211,390.56 390.56,285.211 537.711,261.905 643.059,367.253 710.697,500 643.059,632.747 537.711,738.095 514.404,885.246" />
<polyline points=" 647.151,952.884 514.404,885.246 409.056,779.898 261.905,803.204 114.754,779.898" />
<polyline points=" 500,23.81 367.253,91.447 220.102,114.754" />
<polyline points=" 710.697,500 687.391,352.849 619.753,220.102 514.404,114.754 367.253,91.447" />
<polyline points=" 514.404,114.754 647.151,47.116" />
<polyline points=" 976.19,500 908.553,632.747 885.246,779.898" />
<polyline points=" 537.711,738.095 670.457,670.457 775.806,565.109 843.444,432.362 820.137,285.211 752.499,152.464" />
<polyline points=" 820.137,285.211 952.884,352.849" />
<polyline points=" 341.418,647.151 194.267,670.457 47.116,647.151" />
<polyline points=" 843.444,432.362 976.19,500" />
<polyline points=" 619.753,220.102 752.499,152.464" />
<polyline points=" 643.059,632.747 775.806,565.109 908.553,632.747" />
<polyline points=" 514.404,885.246 367.253,908.553" />
<polyline points=" 47.116,352.849 70.422,500 47.116,647.151" />
<polyline points=" 409.056,779.898 341.418,647.151 364.724,500 217.573,523.306 70.422,500" />
<polyline points=" 70.422,500 138.06,367.253 243.409,261.905 390.56,238.598 537.711,261.905" />
<polyline points=" 138.06,367.253 114.754,220.102" />
<polyline points=" 908.553,632.747 803.204,738.095 670.457,805.733 537.711,738.095" />
<polyline points=" 803.204,738.095 779.898,885.246" />
<polyline points=" 243.409,261.905 220.102,114.754" />
<polyline points=" 670.457,805.733 647.151,952.884" />
<polyline points=" 390.56,238.598 367.253,91.447" />
<polyline points=" 537.711,261.905 514.404,114.754" />
<polyline points=" 687.391,352.849 820.137,285.211" />
<polyline points=" 432.362,367.253 285.211,390.56 138.06,367.253" />
<polyline points=" 670.457,670.457 803.204,738.095" />
<polyline points=" 643.059,367.253 619.753,220.102" />
<polyline points=" 710.697,500 843.444,432.362" />
<polyline points=" 432.362,632.747 409.056,779.898" />
<polyline points=" 390.56,285.211 243.409,261.905" />
<polyline points=" 643.059,632.747 575.421,500 643.059,367.253" />
<polyline points=" 364.724,500 432.362,367.253 537.711,261.905" />
<polyline points=" 575.421,500 470.073,394.651" />
<polyline points=" 364.724,500 470.073,394.651 537.711,261.905" />
<polyline points=" 575.421,500 470.073,605.349 364.724,500 432.362,632.747 537.711,738.095" />
<polyline points=" 470.073,605.349 537.711,738.095" />
</g>
</svg>
